# xmcd
#
# Track frame offsets:
#	150
#	13962
#	26035
#	42630
#	57064
#	71455
#	83180
#	94612
#	107112
#	123155
#
# Disc length: 1809 seconds
#
# Revision: 0
# Processed by: cddbd v1.4PL0 Copyright (c) Steve Scherf et al.
# Submitted via: dBpowerAMP V4.0
#
DISCID=80070f0a
DTITLE=Leif Aase - If There's No Honky Tonks In Heaven
DYEAR=1900
DGENRE=Country
TTITLE0=A little lonlier than this
TTITLE1=If there's no honky tonks in heaven
TTITLE2=Mr.Blues
TTITLE3=Lonesome's looking better all the times
TTITLE4=Big blue roses
TTITLE5=Kiss and tell
TTITLE6=Fifteen weeks
TTITLE7=Let's turn this love around
TTITLE8=Rock till we drop
TTITLE9=The broken promise lounge
EXTD=That's an very good Norwegian country singer
EXTT0=
EXTT1=
EXTT2=
EXTT3=
EXTT4=
EXTT5=
EXTT6=
EXTT7=
EXTT8=
EXTT9=
PLAYORDER=
